<svg xmlns="http://www.w3.org/2000/svg" width="900" height="494" viewBox="0 0 900 494" font-family="'Inter','Segoe UI',-apple-system,sans-serif"><defs><linearGradient id="bg" x1="0" y1="0" x2="1" y2="1"><stop offset="0" style="stop-color:var(--bg0)"/><stop offset="1" style="stop-color:var(--bg1)"/></linearGradient><linearGradient id="bar" x1="0" y1="0" x2="1" y2="0"><stop offset="0" style="stop-color:var(--bar0)"/><stop offset="1" style="stop-color:var(--bar1)"/></linearGradient><linearGradient id="spark" x1="0" y1="0" x2="0" y2="1"><stop offset="0" style="stop-color:var(--green)" stop-opacity="0.35"/><stop offset="1" style="stop-color:var(--green)" stop-opacity="0.02"/></linearGradient><symbol id="logo-python" viewBox="0 0 256 255"><path fill="#3776AB" d="M126.916.072c-64.832 0-60.784 28.115-60.784 28.115l.072 29.128h61.868v8.745H41.631S.145 61.355.145 126.77c0 65.417 36.21 63.097 36.21 63.097h21.61v-30.356s-1.165-36.21 35.632-36.21h61.362s34.475.557 34.475-33.319V33.97S194.67.072 126.916.072zM92.802 19.66a11.12 11.12 0 0 1 11.13 11.13 11.12 11.12 0 0 1-11.13 11.13 11.12 11.12 0 0 1-11.13-11.13 11.12 11.12 0 0 1 11.13-11.13z"/><path fill="#FFD43B" d="M128.757 254.126c64.832 0 60.784-28.115 60.784-28.115l-.072-29.127H127.6v-8.745h86.542s41.486 4.705 41.486-60.712c0-65.416-36.21-63.096-36.21-63.096h-21.61v30.355s1.165 36.21-35.632 36.21h-61.362s-34.475-.557-34.475 33.32v56.013s-5.235 33.897 62.518 33.897zm34.114-19.586a11.12 11.12 0 0 1-11.13-11.13 11.12 11.12 0 0 1 11.13-11.131 11.12 11.12 0 0 1 11.13 11.13 11.12 11.12 0 0 1-11.13 11.13z"/></symbol></defs><style>:root{--bg0:#1a1b27;--bg1:#1f2335;--panel:#24283b;--panel2:#1f2335;--fg:#c0caf5;--muted:#565f89;--blue:#70a5fd;--purple:#bb9af7;--green:#9ece6a;--orange:#e0af68;--cyan:#7dcfff;--bar0:#519a4e;--bar1:#9ece6a;--h0:#2d3350;--h1:#3b6e47;--h2:#519a4e;--h3:#73c05a;--h4:#9ece6a;}@media (prefers-color-scheme:light){:root{--bg0:#e8e9ee;--bg1:#dcdee6;--panel:#d6d8e3;--panel2:#ccd0de;--fg:#2c3053;--muted:#656c96;--blue:#2e7de9;--purple:#7847bd;--green:#587539;--orange:#8f5e15;--cyan:#007197;--bar0:#7faa5f;--bar1:#587539;--h0:#d2d4de;--h1:#a6c68c;--h2:#7faa5f;--h3:#5c8a3c;--h4:#3d6420;}}.t-fg{fill:var(--fg)}.t-mut{fill:var(--muted)}.t-cyan{fill:var(--cyan)}.t-green{fill:var(--green)}.t-blue{fill:var(--blue)}.t-purple{fill:var(--purple)}.t-orange{fill:var(--orange)}.t-panel{fill:var(--panel)}.t-panel2{fill:var(--panel2)}.s-mut{stroke:var(--muted)}.s-green{stroke:var(--green)}.h0{fill:var(--h0)}.h1{fill:var(--h1)}.h2{fill:var(--h2)}.h3{fill:var(--h3)}.h4{fill:var(--h4)}@media (prefers-reduced-motion: no-preference){.bar{transform-box:fill-box;transform-origin:left;animation:grow .55s cubic-bezier(.2,.7,.3,1) backwards}.cell{animation:fade .45s ease-out backwards}.pulse{animation:pulse 3s ease-in-out infinite}.line{stroke-dasharray:620;stroke-dashoffset:620;animation:draw 1s ease-out .25s forwards}.fill,.dot{animation:fade .7s ease-out .7s backwards}}@keyframes grow{from{transform:scaleX(0)}}@keyframes fade{from{opacity:0}}@keyframes draw{to{stroke-dashoffset:0}}@keyframes pulse{50%{opacity:.4}}</style><rect width="900" height="494" rx="16" fill="url(#bg)"/><rect x="1" y="1" width="898" height="492" rx="15" fill="none" class="s-mut" stroke-opacity="0.30"/><text x="32" y="50" class="t-fg" font-size="27" font-weight="700">Luke Johnson</text><text x="868" y="44" class="t-cyan" font-size="13" text-anchor="end" letter-spacing="2">DATA SCIENCE · LLM SYSTEMS · DEV TOOLING</text><text x="868" y="76" class="t-mut" font-size="19" text-anchor="end">2026-08-27</text><text x="32" y="97" class="t-cyan" font-size="11.5" letter-spacing="1.5">✦ KEY INSIGHT</text><svg x="32" y="112" width="17" height="17" viewBox="0 0 16 16"><path class="t-purple" d="M5.45 5.154A4.25 4.25 0 0 0 9.25 7.5h1.378a2.251 2.251 0 1 1 0 1.5H9.25A5.734 5.734 0 0 1 5 7.123v3.505a2.25 2.25 0 1 1-1.5 0V5.372a2.25 2.25 0 1 1 1.95-.218ZM4.25 13.5a.75.75 0 1 0 0-1.5.75.75 0 0 0 0 1.5Zm8.5-4.5a.75.75 0 1 0 0-1.5.75.75 0 0 0 0 1.5ZM5 3.25a.75.75 0 1 0 0 .005V3.25Z"/></svg><text x="51" y="129" class="t-purple" font-size="21" font-weight="700" textLength="23" lengthAdjust="spacingAndGlyphs" xml:space="preserve">26</text><text x="74" y="129" class="t-fg" font-size="21" textLength="189" lengthAdjust="spacingAndGlyphs" xml:space="preserve"> merged PRs across </text><svg x="263.1" y="112" width="17" height="17" viewBox="0 0 16 16"><path class="t-blue" d="M2 2.5A2.5 2.5 0 0 1 4.5 0h8.75a.75.75 0 0 1 .75.75v12.5a.75.75 0 0 1-.75.75h-2.5a.75.75 0 0 1 0-1.5h1.75v-2h-8a1 1 0 0 0-.714 1.7.75.75 0 1 1-1.072 1.05A2.495 2.495 0 0 1 2 11.5Zm10.5-1h-8a1 1 0 0 0-1 1v6.708A2.486 2.486 0 0 1 4.5 9h8ZM5 12.25a.25.25 0 0 1 .25-.25h3.5a.25.25 0 0 1 .25.25v3.25a.25.25 0 0 1-.4.2l-1.45-1.087a.249.249 0 0 0-.3 0L5.4 15.7a.25.25 0 0 1-.4-.2Z"/></svg><text x="282" y="129" class="t-blue" font-size="21" font-weight="700" textLength="11" lengthAdjust="spacingAndGlyphs" xml:space="preserve">4</text><text x="293" y="129" class="t-fg" font-size="21" textLength="315" lengthAdjust="spacingAndGlyphs" xml:space="preserve"> open-source projects, each with </text><text x="609" y="129" class="t-orange" font-size="21" font-weight="700" textLength="63" lengthAdjust="spacingAndGlyphs" xml:space="preserve">★ 10k+</text><text x="671" y="129" class="t-fg" font-size="21" textLength="58" lengthAdjust="spacingAndGlyphs" xml:space="preserve"> stars.</text><line x1="32" y1="146" x2="868" y2="146" class="s-mut" stroke-opacity="0.25"/><text x="32" y="174" class="t-cyan" font-size="11.5" letter-spacing="1.5">PROJECTS I&apos;M WORKING ON</text><text x="442" y="174" class="t-mut" font-size="10" text-anchor="end" letter-spacing="0.5">commits / 14d</text><rect x="32" y="188" width="410" height="46" rx="10" class="t-panel"/><use href="#logo-python" x="48" y="197" width="14" height="14"/><text x="68" y="209" class="t-fg" font-size="15" font-weight="600">github-profile-widg…</text><text x="426" y="226" class="t-mut" font-size="10.5" text-anchor="end">13 commits</text><text x="48" y="226" class="t-mut" font-size="12">My GitHub profile widget</text><rect x="274" y="199" width="9" height="9" rx="2" class="h1 cell" style="animation-delay:0.10s"/><rect x="285" y="199" width="9" height="9" rx="2" class="h1 cell" style="animation-delay:0.13s"/><rect x="296" y="199" width="9" height="9" rx="2" class="h1 cell" style="animation-delay:0.16s"/><rect x="307" y="199" width="9" height="9" rx="2" class="h1 cell" style="animation-delay:0.19s"/><rect x="318" y="199" width="9" height="9" rx="2" class="h1 cell" style="animation-delay:0.22s"/><rect x="329" y="199" width="9" height="9" rx="2" class="h1 cell" style="animation-delay:0.25s"/><rect x="340" y="199" width="9" height="9" rx="2" class="h1 cell" style="animation-delay:0.28s"/><rect x="351" y="199" width="9" height="9" rx="2" class="h1 cell" style="animation-delay:0.31s"/><rect x="362" y="199" width="9" height="9" rx="2" class="h1 cell" style="animation-delay:0.34s"/><rect x="373" y="199" width="9" height="9" rx="2" class="h1 cell" style="animation-delay:0.37s"/><rect x="384" y="199" width="9" height="9" rx="2" class="h1 cell" style="animation-delay:0.40s"/><rect x="395" y="199" width="9" height="9" rx="2" class="h1 cell" style="animation-delay:0.43s"/><rect x="406" y="199" width="9" height="9" rx="2" class="h1 cell" style="animation-delay:0.46s"/><rect x="417" y="199" width="9" height="9" rx="2" class="h0 cell" style="animation-delay:0.49s"/><text x="470" y="174" class="t-green" font-size="11.5" letter-spacing="1.5">MERGED PRs</text><text x="470" y="209" class="t-orange" font-size="10.5">★</text><text x="514" y="209" class="t-mut" font-size="10.5" text-anchor="end">24.6k</text><text x="522" y="209" class="t-fg" font-size="13">compound-engineering-plugin</text><rect x="716" y="198" width="118" height="14" rx="4" fill="url(#bar)" class="bar" style="animation-delay:0.10s"/><text x="844" y="209" class="t-green" font-size="12.5" font-weight="600">12</text><text x="470" y="239" class="t-orange" font-size="10.5">★</text><text x="514" y="239" class="t-mut" font-size="10.5" text-anchor="end">38.8k</text><text x="522" y="239" class="t-fg" font-size="13">oh-my-claudecode</text><rect x="716" y="228" width="88" height="14" rx="4" fill="url(#bar)" class="bar" style="animation-delay:0.18s"/><text x="844" y="239" class="t-green" font-size="12.5" font-weight="600">9</text><text x="470" y="269" class="t-orange" font-size="10.5">★</text><text x="514" y="269" class="t-mut" font-size="10.5" text-anchor="end">11.6k</text><text x="522" y="269" class="t-fg" font-size="13">statsmodels</text><rect x="716" y="258" width="39" height="14" rx="4" fill="url(#bar)" class="bar" style="animation-delay:0.26s"/><text x="844" y="269" class="t-green" font-size="12.5" font-weight="600">4</text><text x="470" y="299" class="t-orange" font-size="10.5">★</text><text x="514" y="299" class="t-mut" font-size="10.5" text-anchor="end">2k</text><text x="522" y="299" class="t-fg" font-size="13">printing-press-library</text><rect x="716" y="288" width="29" height="14" rx="4" fill="url(#bar)" class="bar" style="animation-delay:0.34s"/><text x="844" y="299" class="t-green" font-size="12.5" font-weight="600">3</text><text x="470" y="329" class="t-orange" font-size="10.5">★</text><text x="514" y="329" class="t-mut" font-size="10.5" text-anchor="end">4.6k</text><text x="522" y="329" class="t-fg" font-size="13">cli-printing-press</text><rect x="716" y="318" width="19" height="14" rx="4" fill="url(#bar)" class="bar" style="animation-delay:0.42s"/><text x="844" y="329" class="t-green" font-size="12.5" font-weight="600">2</text><text x="470" y="359" class="t-orange" font-size="10.5">★</text><text x="514" y="359" class="t-mut" font-size="10.5" text-anchor="end">18.8k</text><text x="522" y="359" class="t-fg" font-size="13">plotly.py</text><rect x="716" y="348" width="9" height="14" rx="4" fill="url(#bar)" class="bar" style="animation-delay:0.50s"/><text x="844" y="359" class="t-green" font-size="12.5" font-weight="600">1</text><text x="470" y="388" class="t-mut" font-size="10" letter-spacing="1">MERGED PRs / MONTH</text><line x1="470" y1="446.0" x2="868" y2="446.0" class="s-mut" stroke-opacity="0.25"/><text x="464" y="449.0" class="t-mut" font-size="9" text-anchor="end">0</text><line x1="470" y1="434.0" x2="868" y2="434.0" class="s-mut" stroke-opacity="0.15" stroke-dasharray="3 3"/><text x="464" y="437.0" class="t-mut" font-size="9" text-anchor="end">5</text><line x1="470" y1="422.0" x2="868" y2="422.0" class="s-mut" stroke-opacity="0.15" stroke-dasharray="3 3"/><text x="464" y="425.0" class="t-mut" font-size="9" text-anchor="end">10</text><line x1="470" y1="410.0" x2="868" y2="410.0" class="s-mut" stroke-opacity="0.15" stroke-dasharray="3 3"/><text x="464" y="413.0" class="t-mut" font-size="9" text-anchor="end">15</text><line x1="470" y1="398.0" x2="868" y2="398.0" class="s-mut" stroke-opacity="0.15" stroke-dasharray="3 3"/><text x="464" y="401.0" class="t-mut" font-size="9" text-anchor="end">20</text><polygon points="470.0,446 470.0,446.0 506.2,446.0 542.4,446.0 578.5,446.0 614.7,446.0 650.9,446.0 687.1,446.0 723.3,446.0 759.5,446.0 795.6,414.8 831.8,400.4 868.0,443.6 868.0,446" fill="url(#spark)" class="fill"/><polyline points="470.0,446.0 506.2,446.0 542.4,446.0 578.5,446.0 614.7,446.0 650.9,446.0 687.1,446.0 723.3,446.0 759.5,446.0 795.6,414.8 831.8,400.4 868.0,443.6" fill="none" class="line s-green" stroke-width="1.8" stroke-linejoin="round" stroke-linecap="round"/><circle cx="868.0" cy="443.6" r="3" class="t-green dot"/><text x="470.0" y="459" class="t-mut" font-size="9" text-anchor="start">Sep ’25</text><text x="687.1" y="459" class="t-mut" font-size="9" text-anchor="middle">Mar</text><text x="868.0" y="459" class="t-mut" font-size="9" text-anchor="end">Aug ’26</text></svg>